<?xml version="1.0" encoding="utf-8"?>
<!-- Generator: Adobe Illustrator 21.0.2, SVG Export Plug-In . SVG Version: 6.00 Build 0)  -->
<svg version="1.1" id="Layer_1" xmlns="http://www.w3.org/2000/svg" xmlns:xlink="http://www.w3.org/1999/xlink" x="0px" y="0px"
	 viewBox="0 0 418.1 334.7" style="enable-background:new 0 0 418.1 334.7;" xml:space="preserve">
<style type="text/css">
	.st0{fill:#FFFFFF;}
</style>
<g>
	<path class="st0" d="M285.5,1.5c66.3,21.2,114.3,82.6,114.3,155.2c0,90-73.9,163-165,163c-53.4,0-100.8-25-131-63.8
		c30.2,47,83.4,78.1,143.9,78.1c94.1,0,170.4-75.4,170.4-168.3C418,85.6,361.4,18.5,285.5,1.5z"/>
	<g>
		<g>
			<path class="st0" d="M98.1,111.5V133h-68v17.6h64.2v21.5H30.2v31.2H2.1v-91.7h96V111.5z"/>
			<path class="st0" d="M133.2,202.5c-5.6-1.2-10.1-3.2-13.3-6.2c-3.3-3-5.6-7-6.9-12.1c-1.4-5.1-2-11.5-2-19.2v-11.9
				c0-9.2,0.7-16.5,2.1-22.1s3.8-9.9,7.1-12.9c3.4-3,7.9-5,13.6-6.1c5.7-1,16.3-1.5,25.1-1.5h19.9c9.2,0,17.3,0.4,23.3,1.3
				c5.9,0.9,10.6,2.4,14,4.8c3.4,2.3,5.8,5.6,7.1,9.7c1.3,4.1,2,12,2,18.6h-28c0-1.8-0.2-3.2-0.7-4.6s-1.6-2.6-3.2-3.5
				s-4-1.6-7.1-2.1s-3.2-0.7-8.5-0.7h-15.6c-5,0-9.1,0.2-12.2,0.6s-5.5,1.3-7.1,2.8c-1.7,1.4-2.8,3.6-3.3,6.5s-0.8,6.8-0.8,11.7v4.8
				c0,4.6,0.3,8.2,0.8,10.9c0.5,2.7,1.6,4.8,3.2,6.3s3.9,2.4,6.9,2.9s6.9,0.7,11.7,0.7h11.8c4.9,0,10.6-0.1,13.7-0.4
				s5.5-0.9,7.2-1.8s2.8-2.2,3.4-3.8c0.6-1.6,0.9-4.7,0.9-7.3h28c0,6.2-0.5,15-1.6,19.2c-1,4.2-3.2,7.5-6.5,10s-8,4.3-14.1,5.4
				s-15.8,1.6-25.8,1.6h-20.5C149.3,204.3,138.8,203.7,133.2,202.5z"/>
			<path class="st0" d="M319.1,111.5c11.5,0,21.5,2.1,27.1,6.3s7.2,14.6,6.9,23.8h-28c0-1.4-0.2-5.2-0.5-6.1c-0.3-1-0.9-1.8-1.7-2.4
				s-2-1.1-3.4-1.3c-1.5-0.3-3.3-0.4-5.6-0.4h-32.3c-3.1,0-5.6,0.6-7.7,1.7c-2,1.1-3,2.5-3,6c0,1.9,0.3,2.5,0.8,3.5s1.3,1.8,2.2,2.2
				c0.9,0.5,2,0.8,3.4,0.9c1.3,0.1,2.8,0.2,4.4,0.3l42.6,1.6c5.2,0.2,9.8,0.6,13.7,1.3c3.9,0.7,7.2,1.9,9.8,3.8s4.6,4.6,5.9,8.1
				c1.3,3.5,2,8.3,2,14.4c0,4.9-0.5,10-1.6,13.4c-1.1,3.5-2.8,6.4-5.2,8.7c-2.4,2.3-5.6,4-9.6,5c-4,1.1-8.8,1.6-14.5,1.6h-52
				c-5.8,0-10.7-0.5-14.7-1.6s-7.2-2.7-9.6-4.8c-2.4-2.2-4.1-4.9-5.2-8.1c-1-3.3-1.5-12.8-1.5-17.2h27.8c0,2.3,1,7.7,3,9.1
				s4.6,2.1,7.7,2.1h33.4c4.8,0,8.4-0.8,10.8-1.9c3.6-1.5,3.4-4.8,3.4-4.8s0-1.3-0.5-2.5c-0.4-1.2-1.2-2.2-2.3-3s-2.6-1.5-4.6-1.9
				s-4.6-0.7-7.7-0.9l-35.5-1.5c-6.3-0.3-11.5-0.7-15.8-1.3c-4.3-0.6-7.8-1.8-10.5-3.5s-4.7-4.2-5.9-7.5c-1.2-3.3-1.8-10.9-1.8-16.6
				c0-4.8,0.6-9,1.8-12.4c1.2-3.4,3.2-6.1,5.8-8.3c2.6-2.1,6.1-3.6,10.2-4.6c4.2-0.9,9.2-1.4,15.1-1.4h42.9V111.5z"/>
		</g>
	</g>
</g>
</svg>
